<mxfile host="app.diagrams.net" modified="2023-11-20T18:44:37.162Z" agent="Mozilla/5.0 (Windows NT 10.0; Win64; x64) AppleWebKit/537.36 (KHTML, like Gecko) Chrome/116.0.0.0 Safari/537.36" etag="cJIB-Gj94-mYCCv6lLA2" version="22.1.3" type="device">
  <diagram id="YMpxYkeeoTzsV30ToAD3" name="Trang-1">
    <mxGraphModel dx="1006" dy="559" grid="1" gridSize="10" guides="1" tooltips="1" connect="1" arrows="1" fold="1" page="1" pageScale="1" pageWidth="827" pageHeight="1169" math="0" shadow="0">
      <root>
        <mxCell id="0" />
        <mxCell id="1" parent="0" />
        <mxCell id="9EIyDI8v5ulJKYS_mJoF-123" value="" style="edgeStyle=orthogonalEdgeStyle;rounded=0;orthogonalLoop=1;jettySize=auto;html=1;" edge="1" parent="1" source="9EIyDI8v5ulJKYS_mJoF-27" target="9EIyDI8v5ulJKYS_mJoF-122">
          <mxGeometry relative="1" as="geometry" />
        </mxCell>
        <mxCell id="9EIyDI8v5ulJKYS_mJoF-27" value="start" style="ellipse;whiteSpace=wrap;html=1;" vertex="1" parent="1">
          <mxGeometry x="320" y="70" width="120" height="80" as="geometry" />
        </mxCell>
        <mxCell id="9EIyDI8v5ulJKYS_mJoF-28" value="" style="edgeStyle=orthogonalEdgeStyle;rounded=0;orthogonalLoop=1;jettySize=auto;html=1;entryX=0.5;entryY=0;entryDx=0;entryDy=0;" edge="1" parent="1" source="9EIyDI8v5ulJKYS_mJoF-29" target="9EIyDI8v5ulJKYS_mJoF-34">
          <mxGeometry relative="1" as="geometry">
            <mxPoint x="380" y="500" as="targetPoint" />
          </mxGeometry>
        </mxCell>
        <mxCell id="9EIyDI8v5ulJKYS_mJoF-29" value="n" style="shape=parallelogram;perimeter=parallelogramPerimeter;whiteSpace=wrap;html=1;fixedSize=1;" vertex="1" parent="1">
          <mxGeometry x="320" y="300" width="120" height="60" as="geometry" />
        </mxCell>
        <mxCell id="9EIyDI8v5ulJKYS_mJoF-30" value="" style="edgeStyle=orthogonalEdgeStyle;rounded=0;orthogonalLoop=1;jettySize=auto;html=1;" edge="1" parent="1" source="9EIyDI8v5ulJKYS_mJoF-31" target="9EIyDI8v5ulJKYS_mJoF-36">
          <mxGeometry relative="1" as="geometry" />
        </mxCell>
        <mxCell id="9EIyDI8v5ulJKYS_mJoF-31" value="i&amp;lt;n" style="rhombus;whiteSpace=wrap;html=1;" vertex="1" parent="1">
          <mxGeometry x="340" y="640" width="80" height="80" as="geometry" />
        </mxCell>
        <mxCell id="9EIyDI8v5ulJKYS_mJoF-32" value="" style="edgeStyle=orthogonalEdgeStyle;rounded=0;orthogonalLoop=1;jettySize=auto;html=1;" edge="1" parent="1" source="9EIyDI8v5ulJKYS_mJoF-34" target="9EIyDI8v5ulJKYS_mJoF-31">
          <mxGeometry relative="1" as="geometry" />
        </mxCell>
        <mxCell id="9EIyDI8v5ulJKYS_mJoF-33" style="edgeStyle=orthogonalEdgeStyle;rounded=0;orthogonalLoop=1;jettySize=auto;html=1;entryX=0;entryY=0.5;entryDx=0;entryDy=0;" edge="1" parent="1" source="9EIyDI8v5ulJKYS_mJoF-34" target="9EIyDI8v5ulJKYS_mJoF-42">
          <mxGeometry relative="1" as="geometry">
            <Array as="points">
              <mxPoint x="250" y="540" />
              <mxPoint x="250" y="1080" />
            </Array>
          </mxGeometry>
        </mxCell>
        <mxCell id="9EIyDI8v5ulJKYS_mJoF-34" value="i=0" style="whiteSpace=wrap;html=1;" vertex="1" parent="1">
          <mxGeometry x="320" y="510" width="120" height="60" as="geometry" />
        </mxCell>
        <mxCell id="9EIyDI8v5ulJKYS_mJoF-35" value="" style="edgeStyle=orthogonalEdgeStyle;rounded=0;orthogonalLoop=1;jettySize=auto;html=1;" edge="1" parent="1" source="9EIyDI8v5ulJKYS_mJoF-36" target="9EIyDI8v5ulJKYS_mJoF-38">
          <mxGeometry relative="1" as="geometry" />
        </mxCell>
        <mxCell id="9EIyDI8v5ulJKYS_mJoF-36" value="numbers[i]" style="shape=parallelogram;perimeter=parallelogramPerimeter;whiteSpace=wrap;html=1;fixedSize=1;" vertex="1" parent="1">
          <mxGeometry x="320" y="780" width="120" height="60" as="geometry" />
        </mxCell>
        <mxCell id="9EIyDI8v5ulJKYS_mJoF-126" style="edgeStyle=orthogonalEdgeStyle;rounded=0;orthogonalLoop=1;jettySize=auto;html=1;entryX=1;entryY=0.5;entryDx=0;entryDy=0;" edge="1" parent="1" source="9EIyDI8v5ulJKYS_mJoF-38" target="9EIyDI8v5ulJKYS_mJoF-34">
          <mxGeometry relative="1" as="geometry">
            <mxPoint x="500" y="540" as="targetPoint" />
            <Array as="points">
              <mxPoint x="500" y="910" />
              <mxPoint x="500" y="540" />
            </Array>
          </mxGeometry>
        </mxCell>
        <mxCell id="9EIyDI8v5ulJKYS_mJoF-38" value="i++" style="rounded=0;whiteSpace=wrap;html=1;" vertex="1" parent="1">
          <mxGeometry x="320" y="880" width="120" height="60" as="geometry" />
        </mxCell>
        <mxCell id="9EIyDI8v5ulJKYS_mJoF-39" value="true" style="text;html=1;strokeColor=none;fillColor=none;align=center;verticalAlign=middle;whiteSpace=wrap;rounded=0;" vertex="1" parent="1">
          <mxGeometry x="340" y="590" width="60" height="30" as="geometry" />
        </mxCell>
        <mxCell id="9EIyDI8v5ulJKYS_mJoF-40" value="" style="edgeStyle=orthogonalEdgeStyle;rounded=0;orthogonalLoop=1;jettySize=auto;html=1;" edge="1" parent="1" source="9EIyDI8v5ulJKYS_mJoF-42" target="9EIyDI8v5ulJKYS_mJoF-45">
          <mxGeometry relative="1" as="geometry" />
        </mxCell>
        <mxCell id="9EIyDI8v5ulJKYS_mJoF-41" value="" style="edgeStyle=orthogonalEdgeStyle;rounded=0;orthogonalLoop=1;jettySize=auto;html=1;" edge="1" parent="1" source="9EIyDI8v5ulJKYS_mJoF-42" target="9EIyDI8v5ulJKYS_mJoF-70">
          <mxGeometry relative="1" as="geometry" />
        </mxCell>
        <mxCell id="9EIyDI8v5ulJKYS_mJoF-42" value="case 1" style="rhombus;whiteSpace=wrap;html=1;" vertex="1" parent="1">
          <mxGeometry x="340" y="1040" width="80" height="80" as="geometry" />
        </mxCell>
        <mxCell id="9EIyDI8v5ulJKYS_mJoF-43" value="false" style="text;html=1;strokeColor=none;fillColor=none;align=center;verticalAlign=middle;whiteSpace=wrap;rounded=0;" vertex="1" parent="1">
          <mxGeometry x="240" y="510" width="60" height="30" as="geometry" />
        </mxCell>
        <mxCell id="9EIyDI8v5ulJKYS_mJoF-44" value="" style="edgeStyle=orthogonalEdgeStyle;rounded=0;orthogonalLoop=1;jettySize=auto;html=1;" edge="1" parent="1" source="9EIyDI8v5ulJKYS_mJoF-45" target="9EIyDI8v5ulJKYS_mJoF-48">
          <mxGeometry relative="1" as="geometry" />
        </mxCell>
        <mxCell id="9EIyDI8v5ulJKYS_mJoF-45" value="i=0" style="rounded=0;whiteSpace=wrap;html=1;" vertex="1" parent="1">
          <mxGeometry x="460" y="1050" width="120" height="60" as="geometry" />
        </mxCell>
        <mxCell id="9EIyDI8v5ulJKYS_mJoF-46" value="" style="edgeStyle=orthogonalEdgeStyle;rounded=0;orthogonalLoop=1;jettySize=auto;html=1;" edge="1" parent="1" source="9EIyDI8v5ulJKYS_mJoF-48">
          <mxGeometry relative="1" as="geometry">
            <mxPoint x="760" y="1080" as="targetPoint" />
          </mxGeometry>
        </mxCell>
        <mxCell id="9EIyDI8v5ulJKYS_mJoF-47" style="edgeStyle=orthogonalEdgeStyle;rounded=0;orthogonalLoop=1;jettySize=auto;html=1;" edge="1" parent="1" source="9EIyDI8v5ulJKYS_mJoF-48">
          <mxGeometry relative="1" as="geometry">
            <mxPoint x="1760" y="1250" as="targetPoint" />
            <Array as="points">
              <mxPoint x="675" y="1200" />
              <mxPoint x="676" y="1280" />
            </Array>
          </mxGeometry>
        </mxCell>
        <mxCell id="9EIyDI8v5ulJKYS_mJoF-48" value="i&amp;lt;n" style="rhombus;whiteSpace=wrap;html=1;" vertex="1" parent="1">
          <mxGeometry x="635" y="1040" width="80" height="80" as="geometry" />
        </mxCell>
        <mxCell id="9EIyDI8v5ulJKYS_mJoF-49" value="" style="edgeStyle=orthogonalEdgeStyle;rounded=0;orthogonalLoop=1;jettySize=auto;html=1;" edge="1" parent="1" source="9EIyDI8v5ulJKYS_mJoF-50" target="9EIyDI8v5ulJKYS_mJoF-53">
          <mxGeometry relative="1" as="geometry" />
        </mxCell>
        <mxCell id="9EIyDI8v5ulJKYS_mJoF-50" value="j = i-1&lt;br&gt;key = numbers[i]" style="whiteSpace=wrap;html=1;rounded=0;" vertex="1" parent="1">
          <mxGeometry x="760" y="1050" width="120" height="60" as="geometry" />
        </mxCell>
        <mxCell id="9EIyDI8v5ulJKYS_mJoF-51" value="" style="edgeStyle=orthogonalEdgeStyle;rounded=0;orthogonalLoop=1;jettySize=auto;html=1;" edge="1" parent="1" source="9EIyDI8v5ulJKYS_mJoF-53" target="9EIyDI8v5ulJKYS_mJoF-55">
          <mxGeometry relative="1" as="geometry" />
        </mxCell>
        <mxCell id="9EIyDI8v5ulJKYS_mJoF-52" style="edgeStyle=orthogonalEdgeStyle;rounded=0;orthogonalLoop=1;jettySize=auto;html=1;" edge="1" parent="1" source="9EIyDI8v5ulJKYS_mJoF-53">
          <mxGeometry relative="1" as="geometry">
            <mxPoint x="1005" y="910" as="targetPoint" />
          </mxGeometry>
        </mxCell>
        <mxCell id="9EIyDI8v5ulJKYS_mJoF-53" value="j &amp;gt;=0 &amp;amp;&amp;amp;&lt;br&gt;numbers[j]&amp;lt; key" style="rhombus;whiteSpace=wrap;html=1;" vertex="1" parent="1">
          <mxGeometry x="930" y="1025" width="150" height="110" as="geometry" />
        </mxCell>
        <mxCell id="9EIyDI8v5ulJKYS_mJoF-54" value="" style="edgeStyle=orthogonalEdgeStyle;rounded=0;orthogonalLoop=1;jettySize=auto;html=1;" edge="1" parent="1" source="9EIyDI8v5ulJKYS_mJoF-55" target="9EIyDI8v5ulJKYS_mJoF-57">
          <mxGeometry relative="1" as="geometry" />
        </mxCell>
        <mxCell id="9EIyDI8v5ulJKYS_mJoF-55" value="numbers[j+1] = numbers[j]&lt;br&gt;j =j-1&lt;br&gt;numbers[j+1] = key" style="rounded=0;whiteSpace=wrap;html=1;" vertex="1" parent="1">
          <mxGeometry x="1140" y="1050" width="120" height="60" as="geometry" />
        </mxCell>
        <mxCell id="9EIyDI8v5ulJKYS_mJoF-56" style="edgeStyle=orthogonalEdgeStyle;rounded=0;orthogonalLoop=1;jettySize=auto;html=1;entryX=0.5;entryY=0;entryDx=0;entryDy=0;exitX=0.5;exitY=0;exitDx=0;exitDy=0;" edge="1" parent="1" source="9EIyDI8v5ulJKYS_mJoF-57" target="9EIyDI8v5ulJKYS_mJoF-48">
          <mxGeometry relative="1" as="geometry">
            <Array as="points">
              <mxPoint x="1380" y="910" />
              <mxPoint x="675" y="910" />
            </Array>
          </mxGeometry>
        </mxCell>
        <mxCell id="9EIyDI8v5ulJKYS_mJoF-57" value="i++" style="rounded=0;whiteSpace=wrap;html=1;" vertex="1" parent="1">
          <mxGeometry x="1320" y="1050" width="120" height="60" as="geometry" />
        </mxCell>
        <mxCell id="9EIyDI8v5ulJKYS_mJoF-58" value="true" style="text;html=1;strokeColor=none;fillColor=none;align=center;verticalAlign=middle;whiteSpace=wrap;rounded=0;" vertex="1" parent="1">
          <mxGeometry x="1050" y="1050" width="60" height="30" as="geometry" />
        </mxCell>
        <mxCell id="9EIyDI8v5ulJKYS_mJoF-59" value="true" style="text;html=1;strokeColor=none;fillColor=none;align=center;verticalAlign=middle;whiteSpace=wrap;rounded=0;" vertex="1" parent="1">
          <mxGeometry x="700" y="1040" width="60" height="30" as="geometry" />
        </mxCell>
        <mxCell id="9EIyDI8v5ulJKYS_mJoF-60" value="false" style="text;html=1;strokeColor=none;fillColor=none;align=center;verticalAlign=middle;whiteSpace=wrap;rounded=0;" vertex="1" parent="1">
          <mxGeometry x="960" y="1000" width="60" height="30" as="geometry" />
        </mxCell>
        <mxCell id="9EIyDI8v5ulJKYS_mJoF-61" value="false" style="text;html=1;strokeColor=none;fillColor=none;align=center;verticalAlign=middle;whiteSpace=wrap;rounded=0;" vertex="1" parent="1">
          <mxGeometry x="660" y="1160" width="60" height="30" as="geometry" />
        </mxCell>
        <mxCell id="9EIyDI8v5ulJKYS_mJoF-62" value="" style="edgeStyle=orthogonalEdgeStyle;rounded=0;orthogonalLoop=1;jettySize=auto;html=1;" edge="1" parent="1" source="9EIyDI8v5ulJKYS_mJoF-63" target="9EIyDI8v5ulJKYS_mJoF-66">
          <mxGeometry relative="1" as="geometry" />
        </mxCell>
        <mxCell id="9EIyDI8v5ulJKYS_mJoF-63" value="i=0" style="rounded=0;whiteSpace=wrap;html=1;" vertex="1" parent="1">
          <mxGeometry x="460" y="1380" width="120" height="60" as="geometry" />
        </mxCell>
        <mxCell id="9EIyDI8v5ulJKYS_mJoF-64" value="" style="edgeStyle=orthogonalEdgeStyle;rounded=0;orthogonalLoop=1;jettySize=auto;html=1;" edge="1" parent="1" source="9EIyDI8v5ulJKYS_mJoF-66">
          <mxGeometry relative="1" as="geometry">
            <mxPoint x="760" y="1410" as="targetPoint" />
          </mxGeometry>
        </mxCell>
        <mxCell id="9EIyDI8v5ulJKYS_mJoF-65" style="edgeStyle=orthogonalEdgeStyle;rounded=0;orthogonalLoop=1;jettySize=auto;html=1;" edge="1" parent="1" source="9EIyDI8v5ulJKYS_mJoF-66">
          <mxGeometry relative="1" as="geometry">
            <Array as="points">
              <mxPoint x="675" y="1610" />
              <mxPoint x="1760" y="1610" />
              <mxPoint x="1760" y="840" />
              <mxPoint x="607" y="840" />
            </Array>
            <mxPoint x="250" y="1000" as="targetPoint" />
          </mxGeometry>
        </mxCell>
        <mxCell id="9EIyDI8v5ulJKYS_mJoF-66" value="i&amp;lt;n-1" style="rhombus;whiteSpace=wrap;html=1;" vertex="1" parent="1">
          <mxGeometry x="635" y="1370" width="80" height="80" as="geometry" />
        </mxCell>
        <mxCell id="9EIyDI8v5ulJKYS_mJoF-67" value="" style="edgeStyle=orthogonalEdgeStyle;rounded=0;orthogonalLoop=1;jettySize=auto;html=1;" edge="1" parent="1">
          <mxGeometry relative="1" as="geometry">
            <mxPoint x="880" y="1410" as="sourcePoint" />
            <mxPoint x="940" y="1410" as="targetPoint" />
          </mxGeometry>
        </mxCell>
        <mxCell id="9EIyDI8v5ulJKYS_mJoF-68" value="" style="edgeStyle=orthogonalEdgeStyle;rounded=0;orthogonalLoop=1;jettySize=auto;html=1;" edge="1" parent="1" source="9EIyDI8v5ulJKYS_mJoF-70" target="9EIyDI8v5ulJKYS_mJoF-63">
          <mxGeometry relative="1" as="geometry" />
        </mxCell>
        <mxCell id="9EIyDI8v5ulJKYS_mJoF-69" value="" style="edgeStyle=orthogonalEdgeStyle;rounded=0;orthogonalLoop=1;jettySize=auto;html=1;" edge="1" parent="1" source="9EIyDI8v5ulJKYS_mJoF-70" target="9EIyDI8v5ulJKYS_mJoF-89">
          <mxGeometry relative="1" as="geometry" />
        </mxCell>
        <mxCell id="9EIyDI8v5ulJKYS_mJoF-70" value="case 2" style="rhombus;whiteSpace=wrap;html=1;" vertex="1" parent="1">
          <mxGeometry x="340" y="1370" width="80" height="80" as="geometry" />
        </mxCell>
        <mxCell id="9EIyDI8v5ulJKYS_mJoF-71" value="" style="edgeStyle=orthogonalEdgeStyle;rounded=0;orthogonalLoop=1;jettySize=auto;html=1;" edge="1" parent="1" source="9EIyDI8v5ulJKYS_mJoF-73" target="9EIyDI8v5ulJKYS_mJoF-76">
          <mxGeometry relative="1" as="geometry" />
        </mxCell>
        <mxCell id="9EIyDI8v5ulJKYS_mJoF-72" style="edgeStyle=orthogonalEdgeStyle;rounded=0;orthogonalLoop=1;jettySize=auto;html=1;entryX=0.5;entryY=1;entryDx=0;entryDy=0;" edge="1" parent="1" source="9EIyDI8v5ulJKYS_mJoF-73" target="9EIyDI8v5ulJKYS_mJoF-80">
          <mxGeometry relative="1" as="geometry">
            <Array as="points">
              <mxPoint x="980" y="1540" />
              <mxPoint x="1490" y="1540" />
            </Array>
          </mxGeometry>
        </mxCell>
        <mxCell id="9EIyDI8v5ulJKYS_mJoF-73" value="j&amp;lt; n" style="rhombus;whiteSpace=wrap;html=1;" vertex="1" parent="1">
          <mxGeometry x="940" y="1370" width="80" height="80" as="geometry" />
        </mxCell>
        <mxCell id="9EIyDI8v5ulJKYS_mJoF-74" value="j = i+1" style="rounded=0;whiteSpace=wrap;html=1;" vertex="1" parent="1">
          <mxGeometry x="760" y="1380" width="120" height="60" as="geometry" />
        </mxCell>
        <mxCell id="9EIyDI8v5ulJKYS_mJoF-75" style="edgeStyle=orthogonalEdgeStyle;rounded=0;orthogonalLoop=1;jettySize=auto;html=1;" edge="1" parent="1" source="9EIyDI8v5ulJKYS_mJoF-76">
          <mxGeometry relative="1" as="geometry">
            <mxPoint x="1140" y="1320" as="targetPoint" />
            <Array as="points">
              <mxPoint x="1155" y="1346" />
              <mxPoint x="1141" y="1346" />
            </Array>
          </mxGeometry>
        </mxCell>
        <mxCell id="9EIyDI8v5ulJKYS_mJoF-76" value="numbers[i] &amp;gt; numbers[j]" style="rhombus;whiteSpace=wrap;html=1;" vertex="1" parent="1">
          <mxGeometry x="1100" y="1370" width="110" height="80" as="geometry" />
        </mxCell>
        <mxCell id="9EIyDI8v5ulJKYS_mJoF-77" value="" style="edgeStyle=orthogonalEdgeStyle;rounded=0;orthogonalLoop=1;jettySize=auto;html=1;" edge="1" parent="1" source="9EIyDI8v5ulJKYS_mJoF-78" target="9EIyDI8v5ulJKYS_mJoF-80">
          <mxGeometry relative="1" as="geometry">
            <Array as="points">
              <mxPoint x="1400" y="1410" />
              <mxPoint x="1400" y="1410" />
            </Array>
          </mxGeometry>
        </mxCell>
        <mxCell id="9EIyDI8v5ulJKYS_mJoF-78" value="temp = numbers[i]&lt;br&gt;numbers[i] = number[j]&lt;br&gt;numbers[j] = temp" style="rounded=0;whiteSpace=wrap;html=1;" vertex="1" parent="1">
          <mxGeometry x="1230" y="1380" width="150" height="60" as="geometry" />
        </mxCell>
        <mxCell id="9EIyDI8v5ulJKYS_mJoF-79" style="edgeStyle=orthogonalEdgeStyle;rounded=0;orthogonalLoop=1;jettySize=auto;html=1;entryX=0.5;entryY=0;entryDx=0;entryDy=0;" edge="1" parent="1" source="9EIyDI8v5ulJKYS_mJoF-80" target="9EIyDI8v5ulJKYS_mJoF-66">
          <mxGeometry relative="1" as="geometry">
            <Array as="points">
              <mxPoint x="1490" y="1320" />
              <mxPoint x="675" y="1320" />
            </Array>
          </mxGeometry>
        </mxCell>
        <mxCell id="9EIyDI8v5ulJKYS_mJoF-80" value="i++&lt;br&gt;j++" style="whiteSpace=wrap;html=1;rounded=0;" vertex="1" parent="1">
          <mxGeometry x="1430" y="1380" width="120" height="60" as="geometry" />
        </mxCell>
        <mxCell id="9EIyDI8v5ulJKYS_mJoF-81" value="true" style="text;html=1;strokeColor=none;fillColor=none;align=center;verticalAlign=middle;whiteSpace=wrap;rounded=0;" vertex="1" parent="1">
          <mxGeometry x="700" y="1380" width="60" height="30" as="geometry" />
        </mxCell>
        <mxCell id="9EIyDI8v5ulJKYS_mJoF-82" value="true" style="text;html=1;strokeColor=none;fillColor=none;align=center;verticalAlign=middle;whiteSpace=wrap;rounded=0;" vertex="1" parent="1">
          <mxGeometry x="1020" y="1380" width="60" height="30" as="geometry" />
        </mxCell>
        <mxCell id="9EIyDI8v5ulJKYS_mJoF-83" value="true" style="text;html=1;strokeColor=none;fillColor=none;align=center;verticalAlign=middle;whiteSpace=wrap;rounded=0;" vertex="1" parent="1">
          <mxGeometry x="1170" y="1370" width="60" height="30" as="geometry" />
        </mxCell>
        <mxCell id="9EIyDI8v5ulJKYS_mJoF-84" value="false" style="text;html=1;strokeColor=none;fillColor=none;align=center;verticalAlign=middle;whiteSpace=wrap;rounded=0;" vertex="1" parent="1">
          <mxGeometry x="1090" y="1335" width="60" height="30" as="geometry" />
        </mxCell>
        <mxCell id="9EIyDI8v5ulJKYS_mJoF-85" value="fasle" style="text;html=1;strokeColor=none;fillColor=none;align=center;verticalAlign=middle;whiteSpace=wrap;rounded=0;" vertex="1" parent="1">
          <mxGeometry x="920" y="1470" width="60" height="30" as="geometry" />
        </mxCell>
        <mxCell id="9EIyDI8v5ulJKYS_mJoF-86" value="fasle" style="text;html=1;strokeColor=none;fillColor=none;align=center;verticalAlign=middle;whiteSpace=wrap;rounded=0;" vertex="1" parent="1">
          <mxGeometry x="680" y="1460" width="60" height="30" as="geometry" />
        </mxCell>
        <mxCell id="9EIyDI8v5ulJKYS_mJoF-87" value="" style="edgeStyle=orthogonalEdgeStyle;rounded=0;orthogonalLoop=1;jettySize=auto;html=1;" edge="1" parent="1" source="9EIyDI8v5ulJKYS_mJoF-89" target="9EIyDI8v5ulJKYS_mJoF-91">
          <mxGeometry relative="1" as="geometry" />
        </mxCell>
        <mxCell id="9EIyDI8v5ulJKYS_mJoF-88" value="" style="edgeStyle=orthogonalEdgeStyle;rounded=0;orthogonalLoop=1;jettySize=auto;html=1;" edge="1" parent="1" source="9EIyDI8v5ulJKYS_mJoF-89" target="9EIyDI8v5ulJKYS_mJoF-114">
          <mxGeometry relative="1" as="geometry" />
        </mxCell>
        <mxCell id="9EIyDI8v5ulJKYS_mJoF-89" value="case 3" style="rhombus;whiteSpace=wrap;html=1;" vertex="1" parent="1">
          <mxGeometry x="340" y="1820" width="80" height="80" as="geometry" />
        </mxCell>
        <mxCell id="9EIyDI8v5ulJKYS_mJoF-90" value="" style="edgeStyle=orthogonalEdgeStyle;rounded=0;orthogonalLoop=1;jettySize=auto;html=1;" edge="1" parent="1" source="9EIyDI8v5ulJKYS_mJoF-91" target="9EIyDI8v5ulJKYS_mJoF-94">
          <mxGeometry relative="1" as="geometry" />
        </mxCell>
        <mxCell id="9EIyDI8v5ulJKYS_mJoF-91" value="i=0" style="rounded=0;whiteSpace=wrap;html=1;" vertex="1" parent="1">
          <mxGeometry x="460" y="1830" width="120" height="60" as="geometry" />
        </mxCell>
        <mxCell id="9EIyDI8v5ulJKYS_mJoF-92" value="" style="edgeStyle=orthogonalEdgeStyle;rounded=0;orthogonalLoop=1;jettySize=auto;html=1;" edge="1" parent="1" source="9EIyDI8v5ulJKYS_mJoF-94">
          <mxGeometry relative="1" as="geometry">
            <mxPoint x="760" y="1860" as="targetPoint" />
          </mxGeometry>
        </mxCell>
        <mxCell id="9EIyDI8v5ulJKYS_mJoF-93" style="edgeStyle=orthogonalEdgeStyle;rounded=0;orthogonalLoop=1;jettySize=auto;html=1;" edge="1" parent="1" source="9EIyDI8v5ulJKYS_mJoF-94">
          <mxGeometry relative="1" as="geometry">
            <mxPoint x="1750" y="1608.4000244140625" as="targetPoint" />
            <Array as="points">
              <mxPoint x="675" y="2060" />
              <mxPoint x="1751" y="2060" />
            </Array>
          </mxGeometry>
        </mxCell>
        <mxCell id="9EIyDI8v5ulJKYS_mJoF-94" value="i&amp;lt;n-1" style="rhombus;whiteSpace=wrap;html=1;" vertex="1" parent="1">
          <mxGeometry x="635" y="1820" width="80" height="80" as="geometry" />
        </mxCell>
        <mxCell id="9EIyDI8v5ulJKYS_mJoF-95" value="" style="edgeStyle=orthogonalEdgeStyle;rounded=0;orthogonalLoop=1;jettySize=auto;html=1;" edge="1" parent="1">
          <mxGeometry relative="1" as="geometry">
            <mxPoint x="880" y="1860" as="sourcePoint" />
            <mxPoint x="940" y="1860" as="targetPoint" />
          </mxGeometry>
        </mxCell>
        <mxCell id="9EIyDI8v5ulJKYS_mJoF-96" value="" style="edgeStyle=orthogonalEdgeStyle;rounded=0;orthogonalLoop=1;jettySize=auto;html=1;" edge="1" parent="1" source="9EIyDI8v5ulJKYS_mJoF-98" target="9EIyDI8v5ulJKYS_mJoF-101">
          <mxGeometry relative="1" as="geometry" />
        </mxCell>
        <mxCell id="9EIyDI8v5ulJKYS_mJoF-97" style="edgeStyle=orthogonalEdgeStyle;rounded=0;orthogonalLoop=1;jettySize=auto;html=1;entryX=0.5;entryY=1;entryDx=0;entryDy=0;" edge="1" parent="1" source="9EIyDI8v5ulJKYS_mJoF-98" target="9EIyDI8v5ulJKYS_mJoF-105">
          <mxGeometry relative="1" as="geometry">
            <Array as="points">
              <mxPoint x="980" y="1990" />
              <mxPoint x="1490" y="1990" />
            </Array>
          </mxGeometry>
        </mxCell>
        <mxCell id="9EIyDI8v5ulJKYS_mJoF-98" value="j&amp;lt; n" style="rhombus;whiteSpace=wrap;html=1;" vertex="1" parent="1">
          <mxGeometry x="940" y="1820" width="80" height="80" as="geometry" />
        </mxCell>
        <mxCell id="9EIyDI8v5ulJKYS_mJoF-99" value="j = i+1" style="rounded=0;whiteSpace=wrap;html=1;" vertex="1" parent="1">
          <mxGeometry x="760" y="1830" width="120" height="60" as="geometry" />
        </mxCell>
        <mxCell id="9EIyDI8v5ulJKYS_mJoF-100" style="edgeStyle=orthogonalEdgeStyle;rounded=0;orthogonalLoop=1;jettySize=auto;html=1;" edge="1" parent="1" source="9EIyDI8v5ulJKYS_mJoF-101">
          <mxGeometry relative="1" as="geometry">
            <mxPoint x="1140" y="1770" as="targetPoint" />
          </mxGeometry>
        </mxCell>
        <mxCell id="9EIyDI8v5ulJKYS_mJoF-101" value="numbers[j] &amp;lt;numbers[j+1]" style="rhombus;whiteSpace=wrap;html=1;" vertex="1" parent="1">
          <mxGeometry x="1100" y="1820" width="110" height="80" as="geometry" />
        </mxCell>
        <mxCell id="9EIyDI8v5ulJKYS_mJoF-102" value="" style="edgeStyle=orthogonalEdgeStyle;rounded=0;orthogonalLoop=1;jettySize=auto;html=1;" edge="1" parent="1" source="9EIyDI8v5ulJKYS_mJoF-103" target="9EIyDI8v5ulJKYS_mJoF-105">
          <mxGeometry relative="1" as="geometry">
            <Array as="points">
              <mxPoint x="1400" y="1860" />
              <mxPoint x="1400" y="1860" />
            </Array>
          </mxGeometry>
        </mxCell>
        <mxCell id="9EIyDI8v5ulJKYS_mJoF-103" value="temp = numbers[j]&lt;br&gt;numbbers[i] = numbers[j+1]&lt;br&gt;numbers[j+1] = temp" style="rounded=0;whiteSpace=wrap;html=1;" vertex="1" parent="1">
          <mxGeometry x="1230" y="1830" width="120" height="60" as="geometry" />
        </mxCell>
        <mxCell id="9EIyDI8v5ulJKYS_mJoF-104" style="edgeStyle=orthogonalEdgeStyle;rounded=0;orthogonalLoop=1;jettySize=auto;html=1;entryX=0.5;entryY=0;entryDx=0;entryDy=0;" edge="1" parent="1" source="9EIyDI8v5ulJKYS_mJoF-105" target="9EIyDI8v5ulJKYS_mJoF-94">
          <mxGeometry relative="1" as="geometry">
            <Array as="points">
              <mxPoint x="1490" y="1770" />
              <mxPoint x="675" y="1770" />
            </Array>
          </mxGeometry>
        </mxCell>
        <mxCell id="9EIyDI8v5ulJKYS_mJoF-105" value="i++&lt;br&gt;j++" style="whiteSpace=wrap;html=1;rounded=0;" vertex="1" parent="1">
          <mxGeometry x="1430" y="1830" width="120" height="60" as="geometry" />
        </mxCell>
        <mxCell id="9EIyDI8v5ulJKYS_mJoF-106" value="true" style="text;html=1;strokeColor=none;fillColor=none;align=center;verticalAlign=middle;whiteSpace=wrap;rounded=0;" vertex="1" parent="1">
          <mxGeometry x="700" y="1830" width="60" height="30" as="geometry" />
        </mxCell>
        <mxCell id="9EIyDI8v5ulJKYS_mJoF-107" value="true" style="text;html=1;strokeColor=none;fillColor=none;align=center;verticalAlign=middle;whiteSpace=wrap;rounded=0;" vertex="1" parent="1">
          <mxGeometry x="1020" y="1830" width="60" height="30" as="geometry" />
        </mxCell>
        <mxCell id="9EIyDI8v5ulJKYS_mJoF-108" value="true" style="text;html=1;strokeColor=none;fillColor=none;align=center;verticalAlign=middle;whiteSpace=wrap;rounded=0;" vertex="1" parent="1">
          <mxGeometry x="1170" y="1820" width="60" height="30" as="geometry" />
        </mxCell>
        <mxCell id="9EIyDI8v5ulJKYS_mJoF-109" value="false" style="text;html=1;strokeColor=none;fillColor=none;align=center;verticalAlign=middle;whiteSpace=wrap;rounded=0;" vertex="1" parent="1">
          <mxGeometry x="1090" y="1785" width="60" height="30" as="geometry" />
        </mxCell>
        <mxCell id="9EIyDI8v5ulJKYS_mJoF-110" value="fasle" style="text;html=1;strokeColor=none;fillColor=none;align=center;verticalAlign=middle;whiteSpace=wrap;rounded=0;" vertex="1" parent="1">
          <mxGeometry x="920" y="1920" width="60" height="30" as="geometry" />
        </mxCell>
        <mxCell id="9EIyDI8v5ulJKYS_mJoF-111" value="false" style="text;html=1;strokeColor=none;fillColor=none;align=center;verticalAlign=middle;whiteSpace=wrap;rounded=0;" vertex="1" parent="1">
          <mxGeometry x="660" y="1920" width="60" height="30" as="geometry" />
        </mxCell>
        <mxCell id="9EIyDI8v5ulJKYS_mJoF-112" value="" style="edgeStyle=orthogonalEdgeStyle;rounded=0;orthogonalLoop=1;jettySize=auto;html=1;" edge="1" parent="1" source="9EIyDI8v5ulJKYS_mJoF-114">
          <mxGeometry relative="1" as="geometry">
            <mxPoint x="490" y="2160" as="targetPoint" />
          </mxGeometry>
        </mxCell>
        <mxCell id="9EIyDI8v5ulJKYS_mJoF-113" value="" style="edgeStyle=orthogonalEdgeStyle;rounded=0;orthogonalLoop=1;jettySize=auto;html=1;" edge="1" parent="1" source="9EIyDI8v5ulJKYS_mJoF-114" target="9EIyDI8v5ulJKYS_mJoF-117">
          <mxGeometry relative="1" as="geometry" />
        </mxCell>
        <mxCell id="9EIyDI8v5ulJKYS_mJoF-114" value="case 4" style="rhombus;whiteSpace=wrap;html=1;" vertex="1" parent="1">
          <mxGeometry x="340" y="2120" width="80" height="80" as="geometry" />
        </mxCell>
        <mxCell id="9EIyDI8v5ulJKYS_mJoF-116" style="edgeStyle=orthogonalEdgeStyle;rounded=0;orthogonalLoop=1;jettySize=auto;html=1;" edge="1" parent="1" source="9EIyDI8v5ulJKYS_mJoF-117">
          <mxGeometry relative="1" as="geometry">
            <mxPoint x="1750" y="2060" as="targetPoint" />
          </mxGeometry>
        </mxCell>
        <mxCell id="9EIyDI8v5ulJKYS_mJoF-117" value="vui long nhap tu 1-4" style="shape=parallelogram;perimeter=parallelogramPerimeter;whiteSpace=wrap;html=1;fixedSize=1;" vertex="1" parent="1">
          <mxGeometry x="320" y="2290" width="120" height="60" as="geometry" />
        </mxCell>
        <mxCell id="9EIyDI8v5ulJKYS_mJoF-118" value="End" style="ellipse;whiteSpace=wrap;html=1;" vertex="1" parent="1">
          <mxGeometry x="490" y="2120" width="120" height="80" as="geometry" />
        </mxCell>
        <mxCell id="9EIyDI8v5ulJKYS_mJoF-124" value="" style="edgeStyle=orthogonalEdgeStyle;rounded=0;orthogonalLoop=1;jettySize=auto;html=1;" edge="1" parent="1" source="9EIyDI8v5ulJKYS_mJoF-122" target="9EIyDI8v5ulJKYS_mJoF-29">
          <mxGeometry relative="1" as="geometry" />
        </mxCell>
        <mxCell id="9EIyDI8v5ulJKYS_mJoF-122" value="n" style="whiteSpace=wrap;html=1;" vertex="1" parent="1">
          <mxGeometry x="320" y="190" width="120" height="60" as="geometry" />
        </mxCell>
      </root>
    </mxGraphModel>
  </diagram>
</mxfile>
